<svg id="Layer_1" data-name="Layer 1" xmlns="http://www.w3.org/2000/svg" viewBox="0 0 677.42 288.94"><defs><style>.cls-1,.cls-2{fill:#ffea2a;stroke:#000;stroke-miterlimit:10;}.cls-1{stroke-width:4px;}.cls-2{stroke-width:15px;}</style></defs><title>BeviLogo</title><polygon class="cls-1" points="350.82 164.19 281.21 123.66 211.32 163.68 211.02 244.22 280.63 284.75 350.52 244.73 350.82 164.19"/><path class="cls-2" d="M492.85,367.15" transform="translate(-348.36 -322.6)"/><path d="M720.18,472.89h14.21V574.72H720.18Zm8.4,88.6h27.59q10.86,0,15.83-4.14t5-11.62v-.21a20.39,20.39,0,0,0-1.78-8.9,12.35,12.35,0,0,0-5.64-5.7,21.43,21.43,0,0,0-9.88-2H728.58V516h31.09q7.92,0,12-3.71t4-11q0-7.63-4.48-11.42t-13.45-3.78H728.58V472.89H760.3q9.88,0,16.53,3.37a22.34,22.34,0,0,1,9.95,9.52,30.87,30.87,0,0,1,3.29,14.71,24.11,24.11,0,0,1-2,9.84,20.3,20.3,0,0,1-6.2,7.84,23.27,23.27,0,0,1-10.33,4.38,22.47,22.47,0,0,1,10.65,4.37,23,23,0,0,1,6.86,8.65,26.65,26.65,0,0,1,2.38,11.21V547a28.7,28.7,0,0,1-3.64,14.57,24.52,24.52,0,0,1-10.44,9.73,34.61,34.61,0,0,1-15.82,3.43H728.58Z" transform="translate(-348.36 -322.6)"/><path d="M836.06,575.77,828.92,572A25.19,25.19,0,0,1,818,560.89q-3.75-7.32-3.75-17.68V535q0-10.78,3.6-18.42A25.89,25.89,0,0,1,828.35,505q6.87-4,16.53-4a26.3,26.3,0,0,1,15.55,4.55,28.29,28.29,0,0,1,9.84,13.17q3.39,8.61,3.4,20.66v4.76h-49V532.63h35.44q-.63-8.89-4.59-13.83a12.9,12.9,0,0,0-10.61-4.94q-8.11,0-12.57,5.33t-4.45,15v9.25q0,9,4.77,13.86t13.51,4.84a22.7,22.7,0,0,0,8.62-1.75,25,25,0,0,0,7.63-4.91l9.39,9.39a39.74,39.74,0,0,1-12.12,8,34.53,34.53,0,0,1-13.52,2.83Z" transform="translate(-348.36 -322.6)"/><path d="M938.29,502H953.2l-27.31,72.69H915.1L887.79,502h14.92l17.79,51.89Z" transform="translate(-348.36 -322.6)"/><path d="M972.23,472.89h14.29v14.29H972.23Zm0,29.14h14.29v72.69H972.23Z" transform="translate(-348.36 -322.6)"/><path d="M1010.79,559.74h15v15h-15Z" transform="translate(-348.36 -322.6)"/><polyline class="cls-1" points="239.85 163.39 225.88 172.16 226.18 232.54 246.62 244.45"/><path class="cls-2" d="M614.94,411.15" transform="translate(-348.36 -322.6)"/><polygon class="cls-1" points="141.8 42.84 72.2 2.31 2.3 42.33 2 122.87 71.61 163.39 141.51 123.38 141.8 42.84"/><polygon class="cls-1" points="210.43 166.07 140.83 125.55 70.93 165.57 70.64 246.11 140.24 286.63 210.14 246.62 210.43 166.07"/><polyline class="cls-1" points="14.7 66.76 16.76 49.52 60.19 22.34"/><polyline class="cls-1" points="131.48 96.31 130.94 115.76 89.08 136.74"/><polygon class="cls-1" points="280.95 44.95 211.35 4.42 141.45 44.44 141.16 124.98 210.76 165.51 280.66 125.49 280.95 44.95"/><polyline class="cls-1" points="100.29 248.39 87.22 240.99 86.57 224.47"/><polyline class="cls-1" points="233.12 31.85 266.88 51.5 266.58 88.55"/></svg>